nColumns=19
nRows=91
DataType=double
version=3
OpenSimVersion=4.1
endheader
time	ground_force_calcn_r_vx	ground_force_calcn_r_vy	ground_force_calcn_r_vz	ground_force_calcn_r_px	ground_force_calcn_r_py	ground_force_calcn_r_pz	ground_force_calcn_r_mx	ground_force_calcn_r_my	ground_force_calcn_r_mz	ground_force_calcn_l_vx	ground_force_calcn_l_vy	ground_force_calcn_l_vz	ground_force_calcn_l_px	ground_force_calcn_l_py	ground_force_calcn_l_pz	ground_force_calcn_l_mx	ground_force_calcn_l_my	ground_force_calcn_l_mz
0	13.8901	158.714	1.48398	0.13136	0	-0.161004	0.0541463	0.618695	0.00578484	0	0	0	0	0	0	0	0	0
0.01	3.25205	197.257	1.05473	0.13695	0	-0.161019	0.0109048	0.661444	0.00353674	0	0	0	0	0	0	0	0	0
0.02	-8.84577	241.834	0.262862	0.142543	0	-0.160862	-0.0254812	0.696629	0.000757201	0	0	0	0	0	0	0	0	0
0.03	-22.0936	291.882	-0.981343	0.147372	0	-0.160617	-0.0550103	0.72675	-0.00244342	0	0	0	0	0	0	0	0	0
0.04	-36.0735	346.42	-2.76537	0.151613	0	-0.160312	-0.078491	0.753762	-0.00601706	0	0	0	0	0	0	0	0	0
0.05	-50.3211	404.066	-5.14862	0.1554	0	-0.159961	-0.0970576	0.779349	-0.00993048	0	0	0	0	0	0	0	0	0
0.06	-64.3393	463.167	-8.13172	0.158821	0	-0.15958	-0.111869	0.805324	-0.0141389	0	0	0	0	0	0	0	0	0
0.07	-77.6034	521.912	-11.6334	0.161928	0	-0.159187	-0.12395	0.833608	-0.018581	0	0	0	0	0	0	0	0	0
0.08	-89.5866	578.469	-15.4871	0.164748	0	-0.158794	-0.134138	0.866142	-0.0231888	0	0	0	0	0	0	0	0	0
0.09	-99.8003	631.126	-19.4721	0.167291	0	-0.158417	-0.142948	0.903987	-0.0278907	0	0	0	0	0	0	0	0	0
0.1	-107.857	678.423	-23.3694	0.169566	0	-0.158062	-0.150187	0.944677	-0.032541	0	0	0	0	0	0	0	0	0
0.11	-113.517	719.227	-26.9981	0.171589	0	-0.157725	-0.154914	0.981513	-0.0368437	0	0	0	0	0	0	0	0	0
0.12	-116.683	752.764	-30.229	0.173377	0	-0.157402	-0.155876	1.00561	-0.0403827	0	0	0	0	0	0	0	0	0
0.13	-117.384	778.629	-32.9793	0.174955	0	-0.157082	-0.152057	1.00862	-0.0427208	0	0	0	0	0	0	0	0	0
0.14	-115.758	796.788	-35.2039	0.176349	0	-0.156756	-0.14297	0.984092	-0.0434794	0	0	0	0	0	0	0	0	0
0.15	-112.038	807.56	-36.8885	0.177595	0	-0.156414	-0.128675	0.927479	-0.0423663	0	0	0	0	0	0	0	0	0
0.16	-106.521	811.564	-38.0452	0.178729	0	-0.156044	-0.109709	0.835851	-0.0391838	0	0	0	0	0	0	0	0	0
0.17	-99.55	809.648	-38.7112	0.179797	0	-0.155635	-0.0869945	0.707534	-0.0338289	0	0	0	0	0	0	0	0	0
0.18	-91.4852	802.811	-38.9472	0.18085	0	-0.155174	-0.0617565	0.541932	-0.026291	0	0	0	0	0	0	0	0	0
0.19	-82.6949	792.134	-38.8296	0.181949	0	-0.154652	-0.0354801	0.339863	-0.0166597	0	0	0	0	0	0	0	0	0
0.2	-73.5408	778.731	-38.44	0.18316	0	-0.154055	-0.00982395	0.104027	-0.00513501	0	0	0	0	0	0	0	0	0
0.21	-64.3686	763.706	-37.8544	0.184554	0	-0.153378	0.0135682	-0.160981	0.00797931	0	0	0	0	0	0	0	0	0
0.22	-55.4896	748.103	-37.1373	0.186202	0	-0.152613	0.0333203	-0.449219	0.0223002	0	0	0	0	0	0	0	0	0
0.23	-47.1572	732.853	-36.3402	0.18817	0	-0.151759	0.0485352	-0.754267	0.037402	0	0	0	0	0	0	0	0	0
0.24	-39.5478	718.723	-35.5032	0.190504	0	-0.15082	0.0588836	-1.07012	0.0528615	0	0	0	0	0	0	0	0	0
0.25	-32.7577	706.28	-34.6588	0.193237	0	-0.149802	0.0645621	-1.39201	0.068309	0	0	0	0	0	0	0	0	0
0.26	-26.8136	695.876	-33.8384	0.196379	0	-0.148715	0.0661445	-1.71661	0.0834737	0	0	0	0	0	0	0	0	0
0.27	-21.6922	687.661	-33.0797	0.199921	0	-0.147572	0.0644121	-2.04192	0.0982259	0	0	0	0	0	0	0	0	0
0.28	-17.3386	681.626	-32.4292	0.203845	0	-0.146384	0.0602005	-2.36664	0.112596	0	0	0	0	0	0	0	0	0
0.29	-13.6767	677.66	-31.9392	0.208119	0	-0.145167	0.0542799	-2.68949	0.12676	0	0	0	0	0	0	0	0	0
0.3	-10.6117	675.616	-31.6614	0.212703	0	-0.143937	0.0472561	-3.00867	0.140995	0	0	0	0	0	0	0	0	0
0.31	-8.02988	675.351	-31.6376	0.217552	0	-0.142713	0.0394932	-3.32156	0.155603	0	0	0	0	0	0	0	0	0
0.32	-5.80363	676.755	-31.8919	0.222612	0	-0.141519	0.0310837	-3.62463	0.17081	0	0	0	0	0	0	0	0	0
0.33	-3.79969	679.763	-32.426	0.227832	0	-0.140383	0.021876	-3.91361	0.186687	0	0	0	0	0	0	0	0	0
0.34	-1.88815	684.347	-33.2199	0.233158	0	-0.139333	0.0115435	-4.18386	0.203095	0	0	0	0	0	0	0	0	0
0.35	0.0486336	690.502	-34.2339	0.238545	0	-0.138398	-0.00031207	-4.4308	0.219671	0	0	0	0	0	0	0	0	0
0.36	2.11215	698.233	-35.4145	0.243956	0	-0.13761	-0.0140672	-4.65031	0.235864	0	0	0	0	0	0	0	0	0
0.37	4.39021	707.538	-36.6988	0.249359	0	-0.136992	-0.0300254	-4.83898	0.25099	0	0	0	0	0	0	0	0	0
0.38	6.95826	718.403	-38.0195	0.25473	0	-0.136567	-0.0483752	-4.99447	0.264319	0	0	0	0	0	0	0	0	0
0.39	9.8793	730.788	-39.3084	0.260048	0	-0.136351	-0.0691593	-5.11583	0.275175	0	0	0	0	0	0	0	0	0
0.4	13.2033	744.61	-40.5	0.2653	0	-0.13635	-0.0922669	-5.20347	0.283021	0	0	0	0	0	0	0	0	0
0.41	16.9669	759.718	-41.5336	0.27047	0	-0.136567	-0.117448	-5.25888	0.287501	0	0	0	0	0	0	0	0	0
0.42	21.1941	775.873	-42.3549	0.275547	0	-0.136993	-0.144346	-5.28421	0.288465	0	0	0	0	0	0	0	0	0
0.43	25.8964	792.734	-42.9169	0.280521	0	-0.137619	-0.172542	-5.28179	0.285945	0	0	0	0	0	0	0	0	0
0.44	31.0728	809.842	-43.1771	0.285384	0	-0.138426	-0.201591	-5.25401	0.28012	0	0	0	0	0	0	0	0	0
0.45	36.7106	826.617	-43.0946	0.290129	0	-0.139394	-0.231079	-5.20324	0.271265	0	0	0	0	0	0	0	0	0
0.46	42.7846	842.347	-42.6285	0.294751	0	-0.140499	-0.260663	-5.13196	0.259712	0	0	0	0	0	0	0	0	0
0.47	49.2548	856.198	-41.7392	0.299247	0	-0.141719	-0.29011	-5.043	0.245844	0	0	0	0	0	0	0	0	0
0.48	56.0613	867.233	-40.3921	0.303619	0	-0.143031	-0.319334	-4.93989	0.230079	0	0	0	0	0	0	0	0	0
0.49	63.1165	874.462	-38.5611	0.307864	0	-0.144414	-0.348396	-4.82693	0.212853	0	0	0	0	0	0	0	0	0
0.5	70.2944	876.902	-36.2341	0.311989	0	-0.14585	-0.377477	-4.70891	0.194575	0	0	0	0	0	0	0	0	0
0.51	77.4245	873.635	-33.418	0.315995	0	-0.147326	-0.406826	-4.5905	0.175594	6.87356	24.8436	-4.22528	0.751626	0	-0.21843	0.190308	0.687842	-0.116985
0.52	84.2867	863.859	-30.1434	0.319892	0	-0.14883	-0.436671	-4.47546	0.156167	5.75925	47.5328	-4.66601	0.791435	0	-0.243863	0.0916136	0.756114	-0.0742232
0.53	90.6108	846.932	-26.4684	0.32369	0	-0.150353	-0.467075	-4.36571	0.136438	3.60042	76.1575	-5.08533	0.809974	0	-0.253585	0.0373384	0.789797	-0.0527378
0.54	96.0812	822.413	-22.4813	0.327408	0	-0.151886	-0.497755	-4.26057	0.116466	0.1142	111.091	-5.443	0.82112	0	-0.258537	0.000845817	0.822788	-0.0403132
0.55	100.357	790.109	-18.3014	0.331072	0	-0.153425	-0.527948	-4.15651	0.0962777	-5.00538	152.401	-5.68465	0.828893	0	-0.261496	-0.0283395	0.862861	-0.0321853
0.56	103.107	750.131	-14.0774	0.334711	0	-0.154963	-0.5563	-4.04723	0.0759526	-12.0301	199.803	-5.73785	0.834895	0	-0.263465	-0.0549619	0.912839	-0.0262145
0.57	104.045	702.942	-9.98277	0.338356	0	-0.156494	-0.580835	-3.92421	0.0557292	-21.021	252.705	-5.50848	0.839879	0	-0.264891	-0.081043	0.974263	-0.021237
0.58	102.974	649.392	-6.20509	0.342047	0	-0.158009	-0.59903	-3.7777	0.0360968	-31.7564	310.225	-4.87418	0.844226	0	-0.266002	-0.107143	1.04667	-0.016445
0.59	99.8181	590.702	-2.92589	0.345818	0	-0.159501	-0.608088	-3.59854	0.0178244	-43.834	371.169	-3.70243	0.848146	0	-0.266922	-0.133003	1.12621	-0.0112341
0.6	94.6406	528.411	-0.290106	0.349709	0	-0.160957	-0.60547	-3.38055	0.00185597	-56.7745	434.033	-1.88793	0.851756	0	-0.267722	-0.157805	1.20639	-0.00524751
0.61	87.6497	464.264	1.62252	0.353767	0	-0.16237	-0.589507	-3.12251	-0.0109126	-70.0363	497.1	0.616139	0.85512	0	-0.268438	-0.180301	1.27973	0.00158618
0.62	79.1823	400.079	2.81251	0.358059	0	-0.163734	-0.559825	-2.82859	-0.0198846	-83.0222	558.549	3.77566	0.858263	0	-0.269088	-0.198983	1.3387	0.00904929
0.63	69.6666	337.612	3.35866	0.362674	0	-0.165054	-0.517435	-2.50755	-0.0249458	-95.1263	616.595	7.4651	0.861188	0	-0.269675	-0.212263	1.37586	0.0166575
0.64	59.5816	278.443	3.39834	0.367752	0	-0.166349	-0.464629	-2.17135	-0.0265009	-105.776	669.6	11.4772	0.863878	0	-0.2702	-0.218797	1.38506	0.0237406
0.65	49.4262	223.858	3.09328	0.373505	0	-0.167652	-0.404688	-1.83289	-0.0253269	-114.462	716.166	15.5634	0.866313	0	-0.270661	-0.21806	1.36435	0.0296495
0.66	39.669	174.77	2.59555	0.38027	0	-0.16902	-0.341357	-1.50392	-0.0223351	-120.798	755.242	19.4891	0.868476	0	-0.27106	-0.210749	1.31763	0.0340016
0.67	30.6885	131.712	2.02838	0.388628	0	-0.170544	-0.278197	-1.19399	-0.0183876	-124.575	786.194	23.0752	0.870366	0	-0.271402	-0.198703	1.25402	0.036806
0.68	22.7372	94.8708	1.47942	0.399697	0	-0.172383	-0.218189	-0.910391	-0.0141967	-125.76	808.812	26.201	0.871988	0	-0.271691	-0.184149	1.18434	0.038366
0.69	15.9439	64.1501	1.00056	0.415921	0	-0.174859	-0.163675	-0.658545	-0.0102714	-124.461	823.26	28.7981	0.873361	0	-0.271935	-0.169076	1.11837	0.0391212
0.7	10.3333	39.2429	0.613328	0.443827	0	-0.178818	-0.116517	-0.442498	-0.00691581	-120.9	830.025	30.8487	0.874505	0	-0.272137	-0.155056	1.06452	0.0395639
0.71	0	0	0	0	0	0	0	0	0	-115.384	829.863	32.3824	0.875445	0	-0.272301	-0.143212	1.03001	0.0401923
0.72	0	0	0	0	0	0	0	0	0	-108.285	823.729	33.4639	0.876215	0	-0.27243	-0.134175	1.02068	0.0414649
0.73	0	0	0	0	0	0	0	0	0	-100.01	812.715	34.1752	0.876855	0	-0.272525	-0.128101	1.04099	0.0437742
0.74	0	0	0	0	0	0	0	0	0	-90.982	797.996	34.5985	0.877408	0	-0.272585	-0.124706	1.09379	0.0474232
0.75	0	0	0	0	0	0	0	0	0	-81.6021	780.776	34.7993	0.877924	0	-0.272606	-0.123311	1.17985	0.0525859
0.76	0	0	0	0	0	0	0	0	0	-72.229	762.23	34.8151	0.878458	0	-0.272579	-0.122978	1.29779	0.0592768
0.77	0	0	0	0	0	0	0	0	0	-63.1566	743.447	34.6554	0.879061	0	-0.272495	-0.122746	1.4449	0.0673534
0.78	0	0	0	0	0	0	0	0	0	-54.6002	725.374	34.3101	0.879786	0	-0.272341	-0.121797	1.6181	0.0765358
0.79	0	0	0	0	0	0	0	0	0	-46.6915	708.768	33.7627	0.880681	0	-0.272107	-0.119548	1.81472	0.0864455
0.8	0	0	0	0	0	0	0	0	0	-39.487	694.168	33.0055	0.881788	0	-0.27179	-0.115637	2.03285	0.0966557
0.81	0	0	0	0	0	0	0	0	0	-32.9893	681.899	32.0532	0.883144	0	-0.271386	-0.10988	2.27125	0.106762
0.82	0	0	0	0	0	0	0	0	0	-27.1694	672.098	30.9475	0.884786	0	-0.270905	-0.10223	2.5289	0.116446
0.83	0	0	0	0	0	0	0	0	0	-21.9825	664.767	29.7535	0.886744	0	-0.270359	-0.0927353	2.80439	0.125518
0.84	0	0	0	0	0	0	0	0	0	-17.379	659.824	28.5493	0.889049	0	-0.269766	-0.0815262	3.09527	0.133926
0.85	0	0	0	0	0	0	0	0	0	-13.3088	657.151	27.416	0.891727	0	-0.269146	-0.0688132	3.39779	0.141754
0.86	0	0	0	0	0	0	0	0	0	-9.71823	656.617	26.4298	0.894798	0	-0.268519	-0.0548672	3.70713	0.149217
0.87	0	0	0	0	0	0	0	0	0	-6.54697	658.094	25.6558	0.898279	0	-0.267905	-0.0399728	4.01802	0.156643
0.88	0	0	0	0	0	0	0	0	0	-3.72864	661.469	25.1451	0.902179	0	-0.267318	-0.0243812	4.32527	0.164421
0.89	0	0	0	0	0	0	0	0	0	-1.19301	666.654	24.9317	0.9065	0	-0.266773	-0.00827492	4.62401	0.17293
0.9	0	0	0	0	0	0	0	0	0	1.13308	673.585	25.031	0.911242	0	-0.266277	0.00825902	4.90977	0.182451
